<svg width="200" height="200" viewBox="0 0 200 200" fill="none" xmlns="http://www.w3.org/2000/svg">
<path d="M33.2883 175.932L74.4498 124.353C76.5636 122.18 77.8546 119.339 78.0965 116.317C78.1278 115.364 77.9188 114.418 77.4927 113.566C77.0665 112.713 76.4382 111.981 75.6574 111.435C73.7497 110.12 71.4647 109.468 69.1507 109.58C68.1271 109.611 67.1062 109.698 66.092 109.84L0 118.756V82.1147L66.092 91.128C67.106 91.2714 68.127 91.3582 69.1507 91.3882C71.4737 91.4928 73.7632 90.8182 75.6574 89.4695C76.4345 88.912 77.0593 88.1731 77.4847 87.3165C77.9102 86.46 78.1217 85.5118 78.0965 84.5557C77.8922 81.5788 76.6512 78.7677 74.5849 76.615L33.1612 24.2892L66.5448 6.00049L91.4038 67.1787C92.1492 69.463 93.4648 71.5211 95.2173 73.165C95.8441 73.8309 96.5944 74.3615 97.4339 74.7242C98.2733 75.0868 99.1809 75.2743 100.095 75.2743C101.01 75.2743 101.917 75.0868 102.757 74.7242C103.596 74.3615 104.347 73.8309 104.973 73.165C106.699 71.5053 108.002 69.4515 108.755 67.1787L133.415 6.00049L167.395 24.2892L125.574 76.615C123.456 78.8372 122.166 81.7213 121.927 84.7822C121.91 85.7071 122.117 86.6242 122.531 87.4516C122.945 88.279 123.553 88.9939 124.303 89.5351C126.276 90.8666 128.631 91.5161 131.008 91.3882C132.099 91.413 133.193 91.3259 134.266 91.128L200 82.1147V118.756L134.266 109.84C133.095 109.631 131.902 109.544 130.714 109.58C128.421 109.444 126.144 110.036 124.208 111.272C123.469 111.799 122.868 112.499 122.46 113.31C122.052 114.12 121.848 115.018 121.864 115.925C122.146 119.059 123.437 122.015 125.542 124.353L167.196 175.932L133.352 194.872L108.556 133.757C107.784 131.494 106.492 129.444 104.783 127.771C104.156 127.105 103.398 126.574 102.558 126.212C101.719 125.849 100.811 125.662 99.8967 125.662C98.9823 125.662 98.0826 125.849 97.2432 126.212C96.4037 126.574 95.6454 127.105 95.0187 127.771C93.2975 129.459 91.9611 131.501 91.1099 133.757L66.2509 194.872L33.2883 175.932Z" fill="#E56F40"/>
</svg>
